<svg id="Layer_1" data-name="Layer 1" xmlns="http://www.w3.org/2000/svg" viewBox="0 0 192 437"><defs><style>.cls-1{fill:#2e3192;}.cls-2{fill:#ffe89f;}.cls-3{fill:#534741;}.cls-4{fill:#736357;}.cls-5{fill:#fff;}.cls-6{fill:#c1272d;}.cls-7{fill:#c7b299;}</style></defs><title>Untitled-12</title><rect class="cls-1" x="102" y="319" width="40" height="85"/><circle class="cls-2" cx="39" cy="340" r="19"/><path class="cls-2" d="M11,242H64a0,0,0,0,1,0,0v89a16,16,0,0,1-16,16H31a20,20,0,0,1-20-20V242A0,0,0,0,1,11,242Z"/><path class="cls-3" d="M429.48,464,411,463.11c-23.2,0-42,15.29-42-9.78V425.12c0-25.07,18.8-45.39,42-45.39h0c23.2,0,42,20.32,42,45.39v28.21C453,478.4,452.68,464,429.48,464Z" transform="translate(-360 -202)"/><path class="cls-4" d="M501,511l-28-8c-38.11,0-76,17.18-76-24.75V431.08c0-41.93,30.89-75.92,69-75.92h0c38.11,0,69,34,69,75.92v47.17C535,520.18,539.11,511,501,511Z" transform="translate(-360 -202)"/><path class="cls-1" d="M40,292H150a0,0,0,0,1,0,0v24a22,22,0,0,1-22,22H60a20,20,0,0,1-20-20V292A0,0,0,0,1,40,292Z"/><rect class="cls-2" x="40" y="29" width="132" height="169" rx="50"/><rect x="60" y="78" width="14" height="29" rx="5"/><rect x="420.5" y="250.5" width="14" height="37" rx="5" transform="translate(336.5 -360.5) rotate(90)"/><rect x="105" y="77" width="14" height="29" rx="5"/><rect x="465.5" y="249.5" width="14" height="37" rx="5" transform="translate(380.5 -406.5) rotate(90)"/><path class="cls-5" d="M60,145h62a0,0,0,0,1,0,0v9a6,6,0,0,1-6,6H66a6,6,0,0,1-6-6v-9A0,0,0,0,1,60,145Z"/><path class="cls-6" d="M69,5h89a7,7,0,0,1,7,7V40a7,7,0,0,1-7,7H50a0,0,0,0,1,0,0V24A19,19,0,0,1,69,5Z"/><path class="cls-6" d="M161,8h11a10,10,0,0,1,10,10v95a6,6,0,0,1-6,6H160a7,7,0,0,1-7-7V16A8,8,0,0,1,161,8Z"/><circle class="cls-6" cx="50.5" cy="23.5" r="23.5"/><rect class="cls-7" x="150" y="87" width="21" height="37" rx="8"/><rect class="cls-4" x="152.75" y="92" width="16" height="23.88" rx="8"/><path class="cls-3" d="M528.48,450.29,510,449.38c-23.2,0-42,15.29-42-9.78V411.39c0-25.07,18.8-45.39,42-45.39h0c23.2,0,42,20.32,42,45.39V439.6C552,464.67,551.68,450.29,528.48,450.29Z" transform="translate(-360 -202)"/><path class="cls-2" d="M131,242h53a0,0,0,0,1,0,0v89a16,16,0,0,1-16,16H151a20,20,0,0,1-20-20V242A0,0,0,0,1,131,242Z"/><circle class="cls-2" cx="19" cy="327" r="19"/><circle class="cls-2" cx="141" cy="328" r="19"/><circle class="cls-2" cx="164" cy="343" r="19"/><rect class="cls-1" x="44" y="320" width="40" height="85"/><path class="cls-1" d="M103,400h40a0,0,0,0,1,0,0v37a0,0,0,0,1,0,0H78a0,0,0,0,1,0,0V425A25,25,0,0,1,103,400Z"/><path class="cls-1" d="M42,400H82a0,0,0,0,1,0,0v37a0,0,0,0,1,0,0H17a0,0,0,0,1,0,0V425A25,25,0,0,1,42,400Z"/></svg>